<svg width="35" height="22" viewBox="0 0 35 22" fill="none" xmlns="http://www.w3.org/2000/svg">
<g clip-path="url(#clip0_551_1035)">
<path d="M17.5043 21.9998C12.6909 21.9998 7.87759 21.9998 3.06425 21.9998C1.13339 21.9998 0 20.8844 0 18.9872C0 13.6506 0 8.31406 0 2.9775C0 1.13679 1.14671 0.000706517 3.00905 0.000706517C12.6662 -0.000235506 22.3233 -0.000235506 31.9805 0.000706517C33.8552 0.000706517 34.9981 1.12548 34.999 2.96714C34.999 8.33384 35 13.6996 34.999 19.0663C34.999 20.8458 33.8362 21.9979 32.0357 21.9988C27.1919 22.0007 22.3481 21.9988 17.5043 21.9988V21.9998ZM18.9717 12.9733C18.867 12.8433 18.7195 12.8923 18.5901 12.8923C12.6833 12.8895 6.77656 12.8923 0.86979 12.8829C0.537671 12.8829 0.46725 12.9931 0.471057 13.2964C0.486283 14.4834 0.493896 15.6722 0.468202 16.8591C0.459637 17.2463 0.587156 17.3254 0.954485 17.3245C5.34245 17.3123 9.73137 17.316 14.1193 17.317C14.8778 17.317 15.6372 17.3264 16.3956 17.3311C16.232 17.4526 16.0435 17.3895 15.8675 17.3904C10.9609 17.3942 6.05522 17.3933 1.14862 17.3933C1.02681 17.3933 0.905952 17.3961 0.784143 17.3933C0.645205 17.3904 0.545284 17.4272 0.550042 17.5911C0.570026 18.2816 0.462492 18.9806 0.602382 19.6598C0.842192 20.8241 1.7196 21.4534 3.03189 21.4534C12.6776 21.4534 22.3224 21.4534 31.9681 21.4534C32.0595 21.4534 32.1508 21.4562 32.2412 21.4515C33.5507 21.3761 34.4366 20.4596 34.449 19.1662C34.4528 18.8204 34.449 18.4747 34.449 18.129C34.449 17.6297 34.1902 17.3801 33.6725 17.3801C28.3709 17.3801 23.0704 17.3801 17.7688 17.3773C17.6004 17.3773 17.4139 17.4338 17.2369 17.2991C18.0277 15.9444 18.8223 14.6134 19.5817 13.2625C19.772 12.9243 19.9842 12.815 20.3658 12.816C24.8775 12.8292 29.3882 12.8188 33.8999 12.8339C34.3196 12.8348 34.4652 12.7595 34.4614 12.3035C34.4385 9.17601 34.4509 6.04849 34.449 2.92004C34.449 1.48062 33.5155 0.54708 32.0576 0.54708C22.3519 0.544254 12.6453 0.544254 2.93958 0.54708C1.48264 0.54708 0.549091 1.48251 0.549091 2.92004C0.547187 6.04755 0.556704 9.17601 0.538623 12.3035C0.535768 12.719 0.649963 12.8207 1.06297 12.8198C6.88028 12.8066 12.6986 12.8103 18.5159 12.8103C18.6529 12.8103 18.7899 12.8047 18.9251 12.8198C19.0278 12.8311 19.0412 12.8961 18.9717 12.9724V12.9733Z" fill="#2C9DD6"/>
<path d="M18.9717 12.9723C19.0412 12.896 19.0279 12.831 18.9251 12.8197C18.79 12.8046 18.652 12.8103 18.5159 12.8103C12.6986 12.8103 6.88033 12.8056 1.06302 12.8197C0.649057 12.8207 0.535813 12.7189 0.538667 12.3035C0.5577 9.17597 0.548184 6.04845 0.549135 2.92C0.549135 1.48153 1.48268 0.547041 2.93963 0.547041C12.6453 0.544215 22.3519 0.544215 32.0576 0.547041C33.5155 0.547041 34.4481 1.48059 34.4491 2.92C34.451 6.04751 34.4386 9.17597 34.4614 12.3035C34.4643 12.7594 34.3196 12.8348 33.9 12.8338C29.3883 12.8188 24.8776 12.8291 20.3659 12.8159C19.9843 12.815 19.7721 12.9243 19.5817 13.2625C18.8233 14.6133 18.0277 15.9453 17.2369 17.299C17.4139 17.4347 17.6004 17.3772 17.7689 17.3772C23.0704 17.381 28.371 17.38 33.6725 17.38C34.1902 17.38 34.4491 17.6297 34.4491 18.129C34.4491 18.4747 34.4519 18.8204 34.4491 19.1661C34.4367 20.4595 33.5507 21.3761 32.2413 21.4515C32.1509 21.4571 32.0595 21.4534 31.9682 21.4534C22.3224 21.4534 12.6777 21.4534 3.03194 21.4534C1.71964 21.4534 0.842237 20.8241 0.602427 19.6597C0.462537 18.9796 0.570071 18.2806 0.550087 17.5911C0.545329 17.4271 0.64525 17.3913 0.784188 17.3932C0.905997 17.3951 1.02685 17.3932 1.14866 17.3932C6.05527 17.3932 10.9609 17.3932 15.8675 17.3904C16.0426 17.3904 16.232 17.4526 16.3957 17.3311C17.3102 15.9105 18.1124 14.4259 18.9717 12.9733V12.9723ZM18.9641 7.24671C18.9641 7.71207 18.9641 8.17743 18.9641 8.64373C18.9641 9.8806 18.9641 9.87307 20.2422 9.84952C20.5096 9.84481 20.6257 9.78452 20.6104 9.49814C20.5886 9.09401 20.6209 8.68612 20.6 8.28199C20.5848 8.00409 20.678 7.91366 20.9587 7.92402C21.3965 7.94004 21.8361 7.95605 22.2701 7.84207C23.0942 7.6254 23.491 7.00461 23.4282 6.00701C23.3797 5.24868 22.9039 4.77578 22.0874 4.67593C21.15 4.561 20.2089 4.64955 19.2696 4.61846C18.9832 4.60904 18.9613 4.7739 18.9632 4.99433C18.9698 5.74512 18.966 6.49592 18.966 7.24671H18.9641ZM6.12283 4.67216C6.12283 4.66557 6.12283 4.65897 6.12283 4.65238C5.667 4.65238 5.21117 4.66462 4.75724 4.64767C4.50126 4.63825 4.41656 4.71832 4.41751 4.97738C4.42798 6.49497 4.42608 8.01257 4.41846 9.53017C4.41751 9.75626 4.47175 9.85705 4.72108 9.84292C5.05415 9.82408 5.39008 9.82031 5.7222 9.84292C5.99912 9.86176 6.04956 9.74401 6.04004 9.50379C6.02291 9.09872 6.05622 8.69083 6.02862 8.28764C6.00673 7.97583 6.12949 7.90518 6.41689 7.9212C6.82514 7.9438 7.23434 7.93627 7.63973 7.84678C8.50381 7.65649 8.93109 7.02439 8.85877 6.02208C8.79977 5.21288 8.29826 4.72303 7.44274 4.67404C7.00404 4.64955 6.56344 4.66933 6.12283 4.66933V4.67216ZM14.2393 10.3243C14.1812 10.6107 14.2773 10.8565 14.2983 11.109C14.3059 11.2032 14.3335 11.2569 14.4429 11.2993C15.4079 11.6789 16.5023 11.2447 16.8801 10.2904C17.315 9.19198 17.7222 8.08228 18.1372 6.97541C18.4769 6.07012 18.4731 6.0899 17.5138 6.05976C17.137 6.04751 16.9857 6.1615 16.901 6.52135C16.7487 7.16569 16.5375 7.79591 16.351 8.43271C16.1264 7.98902 15.9893 7.55287 15.8542 7.11671C15.5278 6.05788 15.5278 6.06918 14.4115 6.06353C14.0708 6.06164 13.99 6.12193 14.1375 6.45352C14.5743 7.43888 14.9854 8.4346 15.4069 9.42655C15.6781 10.0643 15.4564 10.3846 14.7522 10.3667C14.5885 10.3629 14.4249 10.3403 14.2393 10.3243ZM13.6864 9.83821C13.5475 9.46329 13.5218 9.13735 13.5218 8.80576C13.5218 8.28011 13.5332 7.75352 13.4989 7.22975C13.4532 6.53077 13.0602 6.1257 12.3617 6.04657C11.8193 5.98534 11.2702 5.96367 10.7268 6.04186C10.1949 6.11816 9.73332 6.31787 9.53443 6.87461C9.49446 6.98577 9.41547 7.16569 9.59438 7.1478C10.073 7.10069 10.6069 7.58772 11.038 6.99707C11.1551 6.83693 11.3882 6.84917 11.5899 6.84541C11.845 6.83975 12.0629 6.90287 12.0962 7.17982C12.1286 7.4483 11.8535 7.41816 11.707 7.45866C11.1541 7.61221 10.5841 7.70359 10.0359 7.87127C9.55346 8.01822 9.32126 8.39409 9.33458 8.86133C9.34791 9.32198 9.61151 9.68278 10.0797 9.82879C10.6345 10.0021 11.1836 9.95785 11.7184 9.72894C11.9287 9.63945 12.179 9.22684 12.3341 9.79017C12.3427 9.8222 12.4693 9.83444 12.5416 9.83539C12.9032 9.8401 13.2658 9.83727 13.6845 9.83727L13.6864 9.83821ZM27.5678 9.85611C27.7705 9.8401 28.0389 9.89568 28.1731 9.78734C28.293 9.69126 28.1074 9.44162 28.095 9.25322C28.0865 9.11851 28.0855 8.98286 28.0846 8.84815C28.0817 8.3225 28.0931 7.79685 28.0731 7.2712C28.0503 6.66077 27.7819 6.26512 27.2338 6.12193C26.4316 5.9128 25.6151 5.89867 24.8147 6.15679C24.4655 6.26889 24.2171 6.51099 24.0887 6.85483C24.0496 6.95939 23.984 7.13084 24.1458 7.16193C24.5007 7.23069 24.8652 7.24765 25.2249 7.29475C25.4305 7.32113 25.4571 7.13555 25.5589 7.03946C25.7521 6.85765 25.9919 6.83787 26.2384 6.85483C26.4335 6.86801 26.5972 6.93113 26.6248 7.15816C26.6552 7.40779 26.4373 7.41062 26.2955 7.44736C25.7692 7.58584 25.2316 7.68098 24.7101 7.83265C24.1077 8.00786 23.8193 8.43271 23.8898 8.96307C23.9564 9.47177 24.3827 9.86459 24.948 9.91357C25.5161 9.96256 26.0719 9.93336 26.5515 9.56691C26.6152 9.51792 26.7304 9.41524 26.7665 9.54713C26.8979 10.0276 27.2871 9.77133 27.5678 9.85705V9.85611ZM30.5017 7.25519V5.6773C30.5017 4.59962 30.5017 4.61281 29.4254 4.61375C29.0809 4.61375 28.9857 4.72397 28.9905 5.0565C29.0076 6.28867 28.9972 7.52084 28.9972 8.75394C28.9972 9.89379 28.9972 9.88626 30.1639 9.84763C30.4189 9.83915 30.5103 9.76568 30.5055 9.51039C30.4931 8.75865 30.5007 8.00786 30.5017 7.25613V7.25519Z" fill="white"/>
<path d="M18.9716 12.9733C18.1133 14.4259 17.3101 15.9105 16.3956 17.3311C15.6362 17.3263 14.8777 17.3169 14.1183 17.3169C9.73036 17.316 5.34145 17.3122 0.953481 17.3245C0.586152 17.3254 0.458633 17.2463 0.467198 16.8591C0.492892 15.6721 0.486231 14.4843 0.470053 13.2964C0.466246 12.993 0.537619 12.8819 0.868786 12.8828C6.77555 12.8922 12.6823 12.8894 18.5891 12.8922C18.7185 12.8922 18.866 12.8433 18.9707 12.9733H18.9716Z" fill="#273B7F"/>
<path d="M18.9639 7.24778C18.9639 6.49699 18.9677 5.7462 18.961 4.99541C18.9591 4.77497 18.981 4.61012 19.2675 4.61954C20.2067 4.64969 21.1479 4.56114 22.0852 4.677C22.9017 4.7778 23.3776 5.2507 23.4261 6.00808C23.4898 7.00474 23.0921 7.62554 22.268 7.84314C21.835 7.95713 21.3944 7.94206 20.9566 7.9251C20.6759 7.91474 20.5826 8.00517 20.5978 8.28307C20.6197 8.6872 20.5874 9.09509 20.6083 9.49922C20.6235 9.78559 20.5074 9.84494 20.24 9.85059C18.962 9.87509 18.962 9.88262 18.962 8.6448C18.962 8.17945 18.962 7.71409 18.962 7.24778H18.9639ZM20.6045 6.27939C20.6283 6.54504 20.4627 6.90112 21.0023 6.86344C21.5676 6.82387 21.8635 6.66185 21.8635 6.28127C21.8635 5.91576 21.5466 5.73019 20.9994 5.68874C20.4589 5.64823 20.6321 6.01562 20.6045 6.27844V6.27939Z" fill="#2C9DD6"/>
<path d="M6.12234 4.67279C6.562 4.67279 7.00355 4.65206 7.44226 4.6775C8.29777 4.72554 8.79928 5.21634 8.85828 6.02553C8.9306 7.02785 8.50332 7.65994 7.63924 7.85023C7.23385 7.93972 6.82465 7.94632 6.4164 7.92465C6.12901 7.90864 6.00625 7.97929 6.02813 8.2911C6.05573 8.69523 6.02242 9.10218 6.03955 9.50725C6.04907 9.74747 5.99863 9.86522 5.72171 9.84638C5.38959 9.82377 5.05366 9.82659 4.72059 9.84638C4.47127 9.86051 4.41702 9.75877 4.41797 9.53363C4.42559 8.01603 4.42749 6.49843 4.41702 4.98083C4.41512 4.72177 4.50077 4.6417 4.75676 4.65112C5.21163 4.66808 5.66746 4.65583 6.12234 4.65583C6.12234 4.66243 6.12234 4.66902 6.12234 4.67561V4.67279ZM6.03289 6.26763C6.05954 6.55589 5.89015 6.91292 6.43543 6.86959C7.03115 6.82154 7.28904 6.68872 7.2938 6.29401C7.29856 5.88329 7.01688 5.72126 6.41259 5.6864C5.84732 5.65343 6.09475 6.05191 6.03289 6.26763Z" fill="#273B7F"/>
<path d="M14.2396 10.324C14.4252 10.34 14.5889 10.3626 14.7526 10.3664C15.4568 10.3843 15.6775 10.064 15.4073 9.42626C14.9857 8.43431 14.5756 7.43765 14.1378 6.45324C13.9903 6.12165 14.0712 6.06136 14.4119 6.06324C15.5281 6.06889 15.5272 6.05759 15.8545 7.11642C15.9897 7.55258 16.1258 7.98873 16.3513 8.43243C16.5378 7.79656 16.7481 7.16541 16.9013 6.52106C16.986 6.16121 17.1373 6.04723 17.5142 6.05947C18.4744 6.08962 18.4772 6.06983 18.1375 6.97512C17.7226 8.08105 17.3153 9.19075 16.8804 10.2901C16.5026 11.2444 15.4073 11.6786 14.4433 11.299C14.3348 11.2566 14.3072 11.2029 14.2986 11.1087C14.2777 10.8572 14.1816 10.6113 14.2396 10.324Z" fill="#273B7F"/>
<path d="M13.6864 9.83799C13.2667 9.83799 12.9051 9.84081 12.5435 9.8361C12.4711 9.8361 12.3446 9.82291 12.336 9.79089C12.1809 9.22756 11.9306 9.64016 11.7203 9.72965C11.1845 9.95856 10.6364 10.0028 10.0816 9.82951C9.6134 9.68349 9.3498 9.3227 9.33648 8.86205C9.32316 8.39481 9.55535 8.01894 10.0378 7.87198C10.585 7.70525 11.156 7.61293 11.7089 7.45938C11.8554 7.41887 12.1295 7.44902 12.0981 7.18054C12.0648 6.90359 11.8469 6.84047 11.5918 6.84612C11.391 6.85083 11.1569 6.83764 11.0399 6.99779C10.6088 7.58749 10.0749 7.10141 9.59627 7.14851C9.41737 7.16641 9.49635 6.98648 9.53632 6.87532C9.73521 6.31859 10.1968 6.11888 10.7287 6.04258C11.2711 5.96439 11.8202 5.98605 12.3636 6.04729C13.0621 6.12547 13.4551 6.53149 13.5008 7.23047C13.5351 7.75423 13.5237 8.28082 13.5237 8.80647C13.5237 9.13806 13.5493 9.464 13.6883 9.83893L13.6864 9.83799ZM12.1133 8.31285C12.1504 8.13198 12.0819 8.05097 11.8745 8.12068C11.5909 8.21582 11.3006 8.29495 11.0237 8.40611C10.861 8.47205 10.7706 8.62183 10.802 8.80459C10.8372 9.00618 10.9714 9.09944 11.1788 9.12205C11.6965 9.17857 12.101 8.84227 12.1143 8.31285H12.1133Z" fill="#273B7F"/>
<path d="M27.5681 9.85589C27.2874 9.77016 26.8982 10.0264 26.7668 9.54596C26.7307 9.41502 26.6155 9.51676 26.5518 9.56574C26.0722 9.93125 25.5164 9.96139 24.9483 9.91241C24.384 9.86342 23.9576 9.4706 23.8901 8.96191C23.8206 8.43155 24.108 8.0067 24.7104 7.83148C25.2319 7.67981 25.7695 7.58467 26.2958 7.44619C26.4385 7.40851 26.6555 7.40569 26.625 7.15699C26.5975 6.93091 26.4338 6.86685 26.2387 6.85366C25.9922 6.8367 25.7524 6.85649 25.5592 7.0383C25.4574 7.13438 25.4308 7.31996 25.2252 7.29358C24.8655 7.24648 24.501 7.22953 24.1461 7.16076C23.9843 7.12967 24.0499 6.95917 24.089 6.85366C24.2174 6.50982 24.4668 6.26866 24.8151 6.15562C25.6154 5.89751 26.4319 5.91164 27.2341 6.12077C27.7832 6.26395 28.0506 6.65866 28.0734 7.27003C28.0934 7.79474 28.081 8.32133 28.0848 8.84698C28.0848 8.98169 28.0868 9.11734 28.0953 9.25205C28.1077 9.44045 28.2933 9.69009 28.1734 9.78618C28.0392 9.89451 27.7708 9.83987 27.5681 9.85494V9.85589ZM25.858 9.11546C26.2149 9.09285 26.5051 8.95908 26.6089 8.59358C26.6469 8.45887 26.7392 8.2893 26.6327 8.1659C26.5061 8.01988 26.3548 8.17626 26.2178 8.20358C26.0427 8.23937 25.8704 8.29966 25.702 8.3609C25.4898 8.43814 25.3147 8.56531 25.3689 8.81966C25.4222 9.0693 25.6239 9.12864 25.858 9.11546Z" fill="#2C9DD6"/>
<path d="M30.5006 7.25566C30.5006 8.0074 30.4921 8.75913 30.5054 9.50992C30.5092 9.76521 30.4188 9.83869 30.1638 9.84717C28.9971 9.88485 28.9971 9.89333 28.9971 8.75348C28.9971 7.52131 29.0075 6.28821 28.9904 5.05604C28.9856 4.72351 29.0818 4.61423 29.4253 4.61329C30.5016 4.61329 30.5016 4.59916 30.5016 5.67683C30.5016 6.20248 30.5016 6.72907 30.5016 7.25472L30.5006 7.25566Z" fill="#2C9DD6"/>
<path d="M20.6049 6.27834C20.6325 6.01551 20.4593 5.64812 20.9998 5.68863C21.547 5.72914 21.8639 5.91472 21.8639 6.28116C21.8639 6.66174 21.5679 6.82377 21.0027 6.86333C20.4631 6.90101 20.6287 6.54399 20.6049 6.27834Z" fill="white"/>
<path d="M6.03334 6.26675C6.09615 6.05102 5.84873 5.65255 6.41305 5.68552C7.01733 5.72037 7.29901 5.8824 7.29425 6.29312C7.2895 6.68783 7.0316 6.82066 6.43588 6.8687C5.8906 6.91203 6.05999 6.55501 6.03334 6.26675Z" fill="white"/>
<path d="M12.1134 8.31273C12.1001 8.8412 11.6956 9.17844 11.1779 9.12192C10.9714 9.09931 10.8363 9.00605 10.8011 8.80446C10.7697 8.62171 10.8601 8.47193 11.0228 8.40599C11.2998 8.29483 11.59 8.2157 11.8736 8.12055C12.082 8.05084 12.1496 8.13186 12.1125 8.31273H12.1134Z" fill="white"/>
<path d="M25.8575 9.11515C25.6225 9.12833 25.4217 9.06899 25.3684 8.81935C25.3142 8.565 25.4883 8.43783 25.7015 8.36059C25.8709 8.29935 26.0422 8.24001 26.2173 8.20327C26.3543 8.17501 26.5046 8.01863 26.6322 8.16559C26.7397 8.28899 26.6474 8.45856 26.6084 8.59327C26.5046 8.95877 26.2154 9.09348 25.8575 9.11515Z" fill="white"/>
</g>
<defs>
<clipPath id="clip0_551_1035">
<rect width="35" height="22" fill="white"/>
</clipPath>
</defs>
</svg>
